<?xml version="1.0" encoding="UTF-8"?>
<!DOCTYPE svg PUBLIC "-//W3C//DTD SVG 1.1//EN" "http://www.w3.org/Graphics/SVG/1.1/DTD/svg11.dtd">
<svg version="1.1" xmlns="http://www.w3.org/2000/svg" xmlns:xlink="http://www.w3.org/1999/xlink" x="0" y="0" width="1046.26" height="851.78" viewBox="0, 0, 1046.26, 851.78">
  <defs>
    <linearGradient id="Gradient_1" gradientUnits="userSpaceOnUse" x1="847.41" y1="397.42" x2="847.41" y2="188.07" gradientTransform="matrix(1, 0, 0, 1, -76.87, -25.61)">
      <stop offset="0" stop-color="#808080" stop-opacity="0.25"/>
      <stop offset="0.54" stop-color="#808080" stop-opacity="0.12"/>
      <stop offset="1" stop-color="#808080" stop-opacity="0.1"/>
    </linearGradient>
    <linearGradient id="Gradient_2" gradientUnits="userSpaceOnUse" x1="271.51" y1="395.01" x2="271.51" y2="173.08" gradientTransform="matrix(1, 0, 0, 1, -76.87, -25.61)">
      <stop offset="0" stop-color="#808080" stop-opacity="0.25"/>
      <stop offset="0.54" stop-color="#808080" stop-opacity="0.12"/>
      <stop offset="1" stop-color="#808080" stop-opacity="0.1"/>
    </linearGradient>
    <linearGradient id="Gradient_3" gradientUnits="userSpaceOnUse" x1="847.54" y1="734.89" x2="847.54" y2="461.05" gradientTransform="matrix(1, 0, 0, 1, -76.87, -25.61)">
      <stop offset="0" stop-color="#808080" stop-opacity="0.25"/>
      <stop offset="0.54" stop-color="#808080" stop-opacity="0.12"/>
      <stop offset="1" stop-color="#808080" stop-opacity="0.1"/>
    </linearGradient>
    <linearGradient id="Gradient_4" gradientUnits="userSpaceOnUse" x1="570.69" y1="731.35" x2="570.69" y2="470.67" gradientTransform="matrix(1, 0, 0, 1, -76.87, -25.61)">
      <stop offset="0" stop-color="#808080" stop-opacity="0.25"/>
      <stop offset="0.54" stop-color="#808080" stop-opacity="0.12"/>
      <stop offset="1" stop-color="#808080" stop-opacity="0.1"/>
    </linearGradient>
    <linearGradient id="Gradient_5" gradientUnits="userSpaceOnUse" x1="610.78" y1="318.04" x2="610.78" y2="160.29" gradientTransform="matrix(1, 0, 0, 1, -76.87, -25.61)">
      <stop offset="0" stop-color="#808080" stop-opacity="0.25"/>
      <stop offset="0.54" stop-color="#808080" stop-opacity="0.12"/>
      <stop offset="1" stop-color="#808080" stop-opacity="0.1"/>
    </linearGradient>
    <linearGradient id="Gradient_6" gradientUnits="userSpaceOnUse" x1="625.44" y1="870.17" x2="625.44" y2="202.1" gradientTransform="matrix(1, 0, 0, 1, -76.87, -25.61)">
      <stop offset="0" stop-color="#808080" stop-opacity="0.25"/>
      <stop offset="0.54" stop-color="#808080" stop-opacity="0.12"/>
      <stop offset="1" stop-color="#808080" stop-opacity="0.1"/>
    </linearGradient>
  </defs>
  <g id="Layer_1">
    <path d="M739.86,833.86 C739.86,843.757 691.981,851.78 632.92,851.78 C573.859,851.78 525.98,843.757 525.98,833.86 C525.98,823.963 573.859,815.94 632.92,815.94 C691.981,815.94 739.86,823.963 739.86,833.86 z" fill="#1C3ED3" opacity="0.1"/>
    <g opacity="0.35">
      <path d="M500.99,204.04 L500.99,197.39 L396.19,197.39 C391.37,197.39 394.31,204.08 394.31,204.08 L337.37,204.08 L337.37,353.23 L587.37,353.23 L587.37,204.04 z" fill="#1C3ED3" opacity="0.2"/>
    </g>
    <path d="M833.41,315.29 C833.41,315.29 864.92,259.47 912.41,243.39 C932.358,236.771 949.619,223.857 961.6,206.59 C967.226,198.353 972.083,189.616 976.11,180.49" fill-opacity="0" stroke="#535461" stroke-width="2" stroke-miterlimit="10"/>
    <path d="M1005.91,170.17 C1000.51,175.42 975.33,180.85 975.33,180.85 C975.33,180.85 981.5,155.85 986.91,150.59 C992.317,145.343 1000.953,145.473 1006.2,150.88 C1011.447,156.287 1011.317,164.923 1005.91,170.17 z" fill="#1C3ED3"/>
    <path d="M991.67,215.39 C984.28,216.86 960.19,207.73 960.19,207.73 C960.19,207.73 978.97,190.1 986.36,188.63 C993.75,187.164 1000.929,191.965 1002.395,199.355 C1003.861,206.745 999.06,213.924 991.67,215.39 z" fill="#1C3ED3"/>
    <path d="M939.8,264.39 C932.68,261.93 916.5,241.89 916.5,241.89 C916.5,241.89 941.61,236.14 948.73,238.61 C955.849,241.076 959.621,248.846 957.155,255.965 C954.689,263.084 946.919,266.856 939.8,264.39 z" fill="#1C3ED3"/>
    <path d="M892.21,292.6 C884.78,291.39 865.44,274.39 865.44,274.39 C865.44,274.39 889.22,264.49 896.66,265.71 C904.094,266.939 909.124,273.961 907.895,281.395 C906.666,288.829 899.644,293.859 892.21,292.63 z" fill="#1C3ED3"/>
    <path d="M939.19,188.22 C939.19,195.76 952.82,217.61 952.82,217.61 C952.82,217.61 966.48,195.77 966.48,188.23 C966.614,183.267 964.043,178.622 959.766,176.101 C955.489,173.58 950.181,173.58 945.904,176.101 C941.627,178.622 939.056,183.267 939.19,188.23 z" fill="#1C3ED3"/>
    <path d="M883.96,221.92 C886.21,229.11 905.76,245.92 905.76,245.92 C905.76,245.92 912.25,220.99 910,213.8 C908.731,208.93 904.884,205.155 899.992,203.978 C895.099,202.8 889.956,204.413 886.611,208.172 C883.265,211.932 882.262,217.227 884,221.95 z" fill="#1C3ED3"/>
    <path d="M834.76,262.04 C835.76,269.51 852.2,289.35 852.2,289.35 C852.2,289.35 862.81,265.88 861.81,258.41 C861.459,253.335 858.315,248.875 853.652,246.84 C848.99,244.805 843.582,245.532 839.622,248.727 C835.662,251.921 833.808,257.052 834.81,262.04 z" fill="#1C3ED3"/>
    <path d="M1005.91,170.17 C1000.51,175.42 975.33,180.85 975.33,180.85 C975.33,180.85 981.5,155.85 986.91,150.59 C992.317,145.343 1000.953,145.473 1006.2,150.88 C1011.447,156.287 1011.317,164.923 1005.91,170.17 z" fill="#000000" opacity="0.25"/>
    <path d="M991.67,215.39 C984.28,216.86 960.19,207.73 960.19,207.73 C960.19,207.73 978.97,190.1 986.36,188.63 C993.75,187.164 1000.929,191.965 1002.395,199.355 C1003.861,206.745 999.06,213.924 991.67,215.39 z" fill="#000000" opacity="0.25"/>
    <path d="M939.8,264.39 C932.68,261.93 916.5,241.89 916.5,241.89 C916.5,241.89 941.61,236.14 948.73,238.61 C955.849,241.076 959.621,248.846 957.155,255.965 C954.689,263.084 946.919,266.856 939.8,264.39 z" fill="#000000" opacity="0.25"/>
    <path d="M892.21,292.6 C884.78,291.39 865.44,274.39 865.44,274.39 C865.44,274.39 889.22,264.49 896.66,265.71 C904.094,266.939 909.124,273.961 907.895,281.395 C906.666,288.829 899.644,293.859 892.21,292.63 z" fill="#000000" opacity="0.25"/>
    <path d="M939.19,188.22 C939.19,195.76 952.82,217.61 952.82,217.61 C952.82,217.61 966.48,195.77 966.48,188.23 C966.614,183.267 964.043,178.622 959.766,176.101 C955.489,173.58 950.181,173.58 945.904,176.101 C941.627,178.622 939.056,183.267 939.19,188.23 z" fill="#000000" opacity="0.25"/>
    <path d="M883.96,221.92 C886.21,229.11 905.76,245.92 905.76,245.92 C905.76,245.92 912.25,220.99 910,213.8 C908.731,208.93 904.884,205.155 899.992,203.978 C895.099,202.8 889.956,204.413 886.611,208.172 C883.265,211.932 882.262,217.227 884,221.95 z" fill="#000000" opacity="0.25"/>
    <path d="M834.76,262.04 C835.76,269.51 852.2,289.35 852.2,289.35 C852.2,289.35 862.81,265.88 861.81,258.41 C861.459,253.335 858.315,248.875 853.652,246.84 C848.99,244.805 843.582,245.532 839.622,248.727 C835.662,251.921 833.808,257.052 834.81,262.04 z" fill="#000000" opacity="0.25"/>
    <path d="M835.23,314.18 C835.23,314.18 841.41,250.38 878.23,216.45 C893.785,202.32 904.331,183.52 908.28,162.88 C910.087,153.067 910.988,143.108 910.97,133.13" fill-opacity="0" stroke="#535461" stroke-width="2" stroke-miterlimit="10"/>
    <path d="M934.13,111.61 C931.31,118.61 910.49,133.77 910.49,133.77 C910.49,133.77 906,108.39 908.82,101.39 C911.637,94.401 919.586,91.018 926.575,93.835 C933.564,96.652 936.947,104.601 934.13,111.59 z" fill="#1C3ED3"/>
    <path d="M939.44,158.75 C933.28,163.09 907.56,164.5 907.56,164.5 C907.56,164.5 917.56,140.77 923.74,136.44 C929.901,132.105 938.41,133.584 942.745,139.745 C947.08,145.906 945.601,154.415 939.44,158.75 z" fill="#1C3ED3"/>
    <path d="M911.86,224.54 C904.35,225.17 881.44,213.41 881.44,213.41 C881.44,213.41 902.07,197.98 909.58,197.35 C917.088,196.72 923.685,202.297 924.315,209.805 C924.945,217.313 919.368,223.91 911.86,224.54 z" fill="#1C3ED3"/>
    <path d="M879.79,269.61 C872.5,271.51 847.92,263.78 847.92,263.78 C847.92,263.78 865.65,245.09 872.92,243.2 C880.213,241.308 887.658,245.687 889.55,252.98 C891.442,260.273 887.063,267.718 879.77,269.61 z" fill="#1C3ED3"/>
    <path d="M880.44,155.15 C883.49,162.04 904.81,176.49 904.81,176.49 C904.81,176.49 908.44,150.99 905.39,144.1 C902.352,137.196 894.294,134.062 887.39,137.1 C880.486,140.138 877.352,148.196 880.39,155.1 z" fill="#1C3ED3"/>
    <path d="M843.6,208.39 C848.6,214.05 873.24,221.47 873.24,221.47 C873.24,221.47 869.07,196.05 864.1,190.38 C859.129,184.719 850.511,184.159 844.85,189.13 C839.189,194.101 838.629,202.719 843.6,208.38 z" fill="#1C3ED3"/>
    <path d="M814.88,264.95 C818.88,271.37 841.88,282.85 841.88,282.85 C841.88,282.85 842.13,257.09 838.13,250.67 C834.111,244.428 825.839,242.543 819.512,246.427 C813.185,250.312 811.122,258.541 814.87,264.95 z" fill="#1C3ED3"/>
    <path d="M986.63,653.39 C986.63,653.39 994.26,663.39 983.11,678.39 C971.96,693.39 962.76,706.17 966.48,715.57 C966.48,715.57 983.31,687.57 997,687.2 C1010.69,686.83 1001.7,670.21 986.63,653.39 z" fill="#1C3ED3"/>
    <path d="M986.63,653.39 C987.295,654.354 987.82,655.408 988.19,656.52 C1001.55,672.22 1008.67,686.87 995.83,687.24 C983.83,687.58 969.51,708.97 966.07,714.38 C966.184,714.797 966.321,715.208 966.48,715.61 C966.639,716.012 983.31,687.61 997,687.24 C1010.69,686.87 1001.7,670.21 986.63,653.39 z" fill="#000000" opacity="0.1"/>
    <path d="M1000.82,666.1 C1000.82,669.62 1000.42,672.46 999.94,672.46 C999.46,672.46 999.06,669.62 999.06,666.1 C999.06,662.58 999.55,664.25 1000.06,664.25 C1000.57,664.25 1000.82,662.59 1000.82,666.1 z" fill="#FFD037"/>
    <path d="M1005.68,670.3 C1002.6,671.98 999.91,672.99 999.68,672.57 C999.45,672.15 1001.76,670.43 1004.84,668.75 C1007.92,667.07 1006.71,668.29 1006.94,668.75 C1007.17,669.21 1008.77,668.62 1005.68,670.3 z" fill="#FFD037"/>
    <path d="M946.33,653.39 C946.33,653.39 938.7,663.39 949.85,678.39 C961,693.39 970.2,706.17 966.48,715.57 C966.48,715.57 949.65,687.57 935.96,687.2 C922.27,686.83 931.26,670.21 946.33,653.39 z" fill="#1C3ED3"/>
    <path d="M946.33,653.39 C945.66,654.352 945.134,655.406 944.77,656.52 C931.4,672.22 924.29,686.87 937.13,687.24 C949.13,687.58 963.45,708.97 966.89,714.38 C966.77,714.79 966.64,715.2 966.48,715.61 C966.48,715.61 949.65,687.61 935.96,687.24 C922.27,686.87 931.26,670.21 946.33,653.39 z" fill="#000000" opacity="0.1"/>
    <path d="M932.13,666.1 C932.13,669.62 932.53,672.46 933.01,672.46 C933.49,672.46 933.89,669.62 933.89,666.1 C933.89,662.58 933.4,664.25 932.89,664.25 C932.38,664.25 932.13,662.59 932.13,666.1 z" fill="#FFD037"/>
    <path d="M927.27,670.3 C930.36,671.98 933.05,672.99 933.27,672.57 C933.49,672.15 931.19,670.43 928.11,668.75 C925.03,667.07 926.24,668.29 926.01,668.75 C925.78,669.21 924.19,668.62 927.27,670.3 z" fill="#FFD037"/>
    <path d="M1046.26,779.69 C1046.26,786.45 1010.541,791.93 966.48,791.93 C922.419,791.93 886.7,786.45 886.7,779.69 C886.7,772.93 922.419,767.45 966.48,767.45 C1010.541,767.45 1046.26,772.93 1046.26,779.69 z" fill="#1C3ED3" opacity="0.1"/>
    <path d="M1007.54,702.16 L1007.16,705.27 L1006.62,709.67 L1006.4,711.51 L1005.87,715.91 L1005.63,717.75 L1005.1,722.15 L998.99,772.15 C998.45,776.62 991.15,780.15 982.34,780.15 L950.62,780.15 C941.81,780.15 934.52,776.67 933.97,772.15 L927.86,722.15 L927.32,717.75 L927.1,715.91 L926.56,711.51 L926.33,709.67 L925.8,705.27 L925.41,702.16 C925.11,699.63 929.06,697.5 934.04,697.5 L998.92,697.5 C1003.9,697.5 1007.85,699.63 1007.54,702.16 z" fill="#65617D"/>
    <path d="M1007.16,705.27 L1006.62,709.67 L926.33,709.67 L925.8,705.27 L1007.16,705.27 z" fill="#9D9CB5"/>
    <path d="M1006.4,711.51 L1005.86,715.91 L927.1,715.91 L926.55,711.51 L1006.4,711.51 z" fill="#9D9CB5"/>
    <path d="M1005.63,717.75 L1005.1,722.14 L927.86,722.14 L927.32,717.75 L1005.63,717.75 z" fill="#9D9CB5"/>
    <path d="M803.68,185.96 L802.84,185.96 C804.16,184.46 804.84,182.96 804.73,181.63 L797.13,174.03 L800.03,167.53 L790.26,167.53 L792.07,162.46 L786.28,162.46 L722.22,183.8 C722.22,183.8 722.15,184.69 722.22,185.96 L680.97,185.96 L680.97,371.81 L860.13,371.81 L860.13,185.96 z" fill="url(#Gradient_1)"/>
    <path d="M682.3,186.61 L858.76,186.61 L858.76,369.85 L682.3,369.85 z" fill="#F6F7F9"/>
    <path d="M803.19,186.61 C794.83,198.92 738.99,215.13 738.99,215.13 L739.34,202.3 L729.01,202.3 C729.592,199.762 728.426,197.145 726.15,195.88 C723.15,194.23 722.86,188.88 722.9,186.61 z" fill="#000000" opacity="0.1"/>
    <path d="M786.04,163.44 L722.95,184.44 C722.95,184.44 722.23,192.64 726.15,194.77 C728.421,196.04 729.585,198.653 729.01,201.19 L739.34,201.19 L738.99,214.02 C738.99,214.02 805.29,194.77 804.22,182.3 L796.74,174.81 L799.59,168.39 L789.96,168.39 L791.75,163.39 z" fill="#9D9CB5"/>
    <g opacity="0.35">
      <path d="M714.92,246.01 L826.14,246.01 L826.14,249.13 L714.92,249.13 z" fill="#1C3ED3" opacity="0.2"/>
    </g>
    <g opacity="0.35">
      <path d="M714.92,262.46 L826.14,262.46 L826.14,265.58 L714.92,265.58 z" fill="#1C3ED3" opacity="0.2"/>
    </g>
    <g opacity="0.35">
      <path d="M714.92,278.9 L826.14,278.9 L826.14,282.02 L714.92,282.02 z" fill="#1C3ED3" opacity="0.2"/>
    </g>
    <g opacity="0.35">
      <path d="M714.92,295.34 L826.14,295.34 L826.14,298.46 L714.92,298.46 z" fill="#1C3ED3" opacity="0.2"/>
    </g>
    <g opacity="0.35">
      <path d="M714.92,311.78 L826.14,311.78 L826.14,314.9 L714.92,314.9 z" fill="#1C3ED3" opacity="0.2"/>
    </g>
    <g opacity="0.35">
      <path d="M714.92,328.23 L826.14,328.23 L826.14,331.35 L714.92,331.35 z" fill="#1C3ED3" opacity="0.2"/>
    </g>
    <path d="M205.8,170.9 L205.38,170.9 C208.54,162.8 211.46,154.9 211.33,153.39 C211.05,150.39 205.04,156.91 204.76,155.28 C204.48,153.65 204.76,147.47 202.03,147.47 C199.3,147.47 197.65,150.68 196.03,150.68 C194.41,150.68 187.82,149.6 187.82,149.6 L179.43,170.9 L116.23,170.9 L116.23,369.39 L273.07,369.39 L273.07,170.9 z" fill="url(#Gradient_2)"/>
    <path d="M117.99,172 L271.28,172 L271.28,368.06 L117.99,368.06 z" fill="#F6F7F9"/>
    <path d="M205.55,172 C202.32,180.39 198.68,189.23 197.85,191.34 C196.24,195.34 195.18,193.21 193.3,192.68 C191.42,192.15 189.03,193.21 187.96,192.68 C186.89,192.15 180.61,192.68 180.61,192.68 C180.68,191.698 180.68,190.712 180.61,189.73 C180.47,188.67 173.25,189.73 173.25,189.73 L180.13,172 z" fill="#000000" opacity="0.1"/>
    <path d="M187.96,150.97 L173.25,188.67 C173.25,188.67 180.47,187.6 180.6,188.67 C180.675,189.649 180.675,190.631 180.6,191.61 C180.525,192.589 186.89,191.07 187.96,191.61 C189.03,192.15 191.43,191.07 193.3,191.61 C195.17,192.15 196.24,194.28 197.85,190.27 C199.46,186.26 211.22,157.65 210.95,154.71 C210.68,151.77 204.8,158.19 204.53,156.58 C204.26,154.97 204.53,148.87 201.86,148.87 C199.19,148.87 197.58,152.04 195.98,152.04 C194.38,152.04 187.96,150.97 187.96,150.97 z" fill="#9D9CB5"/>
    <g opacity="0.35">
      <path d="M139.03,224.04 L250.25,224.04 L250.25,227.16 L139.03,227.16 z" fill="#1C3ED3" opacity="0.2"/>
    </g>
    <g opacity="0.35">
      <path d="M139.03,235.81 L250.25,235.81 L250.25,238.93 L139.03,238.93 z" fill="#1C3ED3" opacity="0.2"/>
    </g>
    <g opacity="0.35">
      <path d="M139.03,247.57 L250.25,247.57 L250.25,250.69 L139.03,250.69 z" fill="#1C3ED3" opacity="0.2"/>
    </g>
    <g opacity="0.35">
      <path d="M139.03,259.34 L250.25,259.34 L250.25,262.46 L139.03,262.46 z" fill="#1C3ED3" opacity="0.2"/>
    </g>
    <g opacity="0.35">
      <path d="M139.03,271.1 L250.25,271.1 L250.25,274.22 L139.03,274.22 z" fill="#1C3ED3" opacity="0.2"/>
    </g>
    <g opacity="0.35">
      <path d="M139.03,282.86 L250.25,282.86 L250.25,285.98 L139.03,285.98 z" fill="#1C3ED3" opacity="0.2"/>
    </g>
    <path d="M784.25,464.39 L783.83,464.39 C787.71,454.39 791.29,444.62 791.12,442.79 C790.79,439.12 783.41,447.13 783.12,445.13 C782.83,443.13 783.12,435.49 779.77,435.49 C776.42,435.49 774.41,439.49 772.4,439.49 C770.39,439.49 762.34,438.15 762.34,438.15 L752,464.39 L674.55,464.39 L674.55,709.28 L866.78,709.28 L866.78,464.39 z" fill="url(#Gradient_3)"/>
    <path d="M676.09,466.09 L864.97,466.09 L864.97,707.69 L676.09,707.69 z" fill="#F6F7F9"/>
    <path d="M783.88,466.09 C779.94,476.35 775.52,487.09 774.49,489.67 C772.49,494.61 771.2,491.97 768.89,491.32 C766.58,490.67 763.62,491.97 762.3,491.32 C760.98,490.67 753.24,491.32 753.24,491.32 C753.326,490.112 753.326,488.898 753.24,487.69 C753.07,486.38 744.18,487.69 744.18,487.69 L752.61,466.09 z" fill="#000000" opacity="0.1"/>
    <path d="M762.3,440.17 L744.18,486.62 C744.18,486.62 753.07,485.3 753.24,486.62 C753.326,487.825 753.326,489.035 753.24,490.24 C753.154,491.445 760.98,489.59 762.3,490.24 C763.62,490.89 766.58,489.59 768.89,490.24 C771.2,490.89 772.51,493.54 774.49,488.6 C776.47,483.66 790.96,448.4 790.63,444.78 C790.3,441.16 783.05,449.06 782.72,447.09 C782.39,445.12 782.72,437.58 779.43,437.58 C776.14,437.58 774.16,441.49 772.18,441.49 C770.2,441.49 762.3,440.17 762.3,440.17 z" fill="#9D9CB5"/>
    <g opacity="0.35">
      <path d="M714.92,533.6 L826.14,533.6 L826.14,541.53 L714.92,541.53 z" fill="#1C3ED3" opacity="0.2"/>
    </g>
    <g opacity="0.35">
      <path d="M714.92,585.11 L826.14,585.11 L826.14,593.04 L714.92,593.04 z" fill="#1C3ED3" opacity="0.2"/>
    </g>
    <g opacity="0.35">
      <path d="M714.92,636.63 L826.14,636.63 L826.14,644.56 L714.92,644.56 z" fill="#1C3ED3" opacity="0.2"/>
    </g>
    <path d="M523.86,472.39 L523.58,472.39 C526.82,459.72 529.26,449.63 529.26,449.63 L515.44,456.13 C515.44,456.13 505.63,443.13 502,445.3 C498.37,447.47 490.4,452.88 490.4,452.88 L479.82,447.46 L475.77,472.39 L392.22,472.39 L392.22,652.28 L397.59,655.49 C402.02,653.9 409.31,651.2 409.31,651.2 L405.96,660.5 L408.22,661.84 L412.03,658.39 L413.44,664.98 L417.97,667.69 L425.12,663.14 L423.12,670.8 L429.83,674.8 L449.34,667.47 L443.46,682.95 L447.33,685.27 L456.16,683.72 C456.16,683.72 455.76,686.81 455.51,690.16 L464.37,695.46 C468,694.05 471.42,692.66 471.42,692.66 C471.42,692.66 471.07,696.04 470.91,699.36 L476.85,702.92 C481.54,700.18 487.51,696.45 487.51,696.45 L482.51,705.75 L595.41,705.75 L595.41,472.39 z" fill="url(#Gradient_4)"/>
    <path d="M593.19,473.94 L593.19,704.22 L482.46,704.22 L487.4,695.05 C487.4,695.05 481.55,698.72 476.95,701.43 L471.13,697.91 C471.29,694.64 471.64,691.3 471.64,691.3 C471.64,691.3 468.28,692.67 464.72,694.06 L456.03,688.83 C456.28,685.53 456.66,682.48 456.66,682.48 L448.01,684.01 L444.22,681.72 L449.98,666.44 L430.85,673.68 L424.26,669.68 L426.18,662.12 L419.18,666.61 L414.74,663.94 L413.36,657.44 L409.62,660.86 L407.4,659.53 L410.69,650.36 C410.69,650.36 403.54,653.02 399.19,654.59 L393.93,651.43 L393.93,473.94 z" fill="#F6F7F9"/>
    <g opacity="0.35">
      <path d="M437.94,545.41 L549.16,545.41 L549.16,553.34 L437.94,553.34 z" fill="#1C3ED3" opacity="0.2"/>
    </g>
    <g opacity="0.35">
      <path d="M437.94,569.12 L549.16,569.12 L549.16,577.05 L437.94,577.05 z" fill="#1C3ED3" opacity="0.2"/>
    </g>
    <g opacity="0.35">
      <path d="M437.94,592.82 L549.16,592.82 L549.16,600.75 L437.94,600.75 z" fill="#1C3ED3" opacity="0.2"/>
    </g>
    <g opacity="0.35">
      <path d="M437.94,616.53 L460.22,616.53 L460.22,624.46 L437.94,624.46 z" fill="#1C3ED3" opacity="0.2"/>
    </g>
    <path d="M523.01,473.94 C517.59,495.32 509.69,524.94 507.63,524.42 C504.43,523.55 499.43,517.42 499.43,517.42 C499.43,517.42 487.67,528.47 481.97,522.77 C476.27,517.07 468.42,520.98 468.42,520.98 L476.02,473.93 z" fill="#000000" opacity="0.1"/>
    <path d="M479.83,449.39 L468.42,519.97 C468.42,519.97 476.26,516.05 481.96,521.76 C487.66,527.47 499.43,516.39 499.43,516.39 C499.43,516.39 504.43,522.51 507.63,523.39 C510.83,524.27 528.31,451.53 528.31,451.53 L514.76,457.95 C514.76,457.95 505.14,445.11 501.57,447.25 C498,449.39 490.2,454.74 490.2,454.74 z" fill="#9D9CB5"/>
    <path d="M573.03,141.45 L573.03,134.68 L466.91,134.68 C462.04,134.68 465.02,141.45 465.02,141.45 L407.36,141.45 L407.36,292.39 L660.46,292.39 L660.46,141.39 z" fill="url(#Gradient_5)"/>
    <path d="M408.96,142.17 L658.94,142.17 L658.94,291.36 L408.96,291.36 z" fill="#F6F7F9"/>
    <path d="M572.59,166.5 L473.4,166.5 C473.4,166.5 472.33,155 475.81,152.87 C479.29,150.74 465.91,143.24 465.91,143.24 C465.762,142.89 465.632,142.533 465.52,142.17 L572.59,142.17 L572.59,145.65 C572.59,145.65 586.23,157.68 572.59,166.5 z" fill="#000000" opacity="0.1"/>
    <path d="M467.78,135.49 L572.59,135.49 L572.59,144.58 C572.59,144.58 586.23,156.58 572.59,165.43 L473.4,165.43 C473.4,165.43 472.33,153.93 475.81,151.8 C479.29,149.67 465.91,142.17 465.91,142.17 C465.91,142.17 462.97,135.49 467.78,135.49 z" fill="#9D9CB5"/>
    <g opacity="0.35">
      <path d="M439.67,188.96 L628.25,188.96 L628.25,192.08 L439.67,192.08 z" fill="#1C3ED3" opacity="0.2"/>
    </g>
    <g opacity="0.35">
      <path d="M439.67,200.72 L552.32,200.72 L552.32,203.84 L439.67,203.84 z" fill="#1C3ED3" opacity="0.2"/>
    </g>
    <g opacity="0.35">
      <path d="M439.67,212.49 L628.25,212.49 L628.25,215.61 L439.67,215.61 z" fill="#1C3ED3" opacity="0.2"/>
    </g>
    <g opacity="0.35">
      <path d="M439.67,224.25 L628.25,224.25 L628.25,227.37 L439.67,227.37 z" fill="#1C3ED3" opacity="0.2"/>
    </g>
    <g opacity="0.35">
      <path d="M439.67,236.01 L628.25,236.01 L628.25,239.13 L439.67,239.13 z" fill="#1C3ED3" opacity="0.2"/>
    </g>
    <path d="M705.82,830.66 C704.03,823.04 702.93,816.36 702.93,816.36 C702.93,816.36 703.34,808.07 699.62,801.85 L699.62,799.78 L699.62,799.78 L699.62,784.47 C700.675,781.698 701.966,779.021 703.48,776.47 C706.24,771.65 703.48,754.01 703.48,754.01 C703.48,754.01 693.26,729.14 695.75,713.37 C698.24,697.6 674.75,643.32 674.75,643.32 C674.894,638.083 675.636,632.879 676.96,627.81 C677.204,626.745 677.305,625.652 677.26,624.56 C677.26,624.43 677.26,624.3 677.26,624.16 L677.26,624.29 C676.91,613.89 668.69,594.39 668.69,594.39 L669.79,557.22 C669.79,557.22 675.04,535.3 666.48,505.89 C663.48,495.62 661.57,487.41 660.36,481.07 Q660.15,479.99 659.97,479 C677.6,476.31 691.06,474.07 691.06,474.07 C691.06,474.07 680.83,431.27 673.93,423.79 C667.03,416.31 661.5,392.79 661.5,392.79 C661.5,392.79 657.9,362.58 663.71,353.79 C669.52,345 670.33,329.72 670.33,329.72 C670.33,329.72 683.59,320.1 685.25,315.82 C686.91,311.54 689.67,301.92 689.67,296.82 C689.67,291.72 688.01,287.19 688.57,284.52 C689.13,281.85 684.7,271.69 686.91,266.87 C687.484,265.39 687.782,263.817 687.79,262.23 C687.796,262.184 687.796,262.137 687.79,262.09 C687.784,262.043 687.79,262.09 687.79,262.04 C687.805,257.829 687.413,253.626 686.62,249.49 C685.827,245.354 680.62,244.2 673.51,242.49 L673.22,241.34 L672.47,238.34 C672.048,238.057 671.61,237.796 671.16,237.56 L671.16,236.47 L671.04,232.13 L673.12,222.36 C677.19,205.36 654.54,202.85 654.54,202.85 C653.182,200.231 650.897,198.213 648.13,197.19 C643.57,195.58 647.37,222.73 649.5,224.46 C651.11,225.77 656.06,234.28 658.44,238.46 L658.44,238.46 L658.83,239.15 C658.468,239.486 658.134,239.851 657.83,240.24 L658.69,246.13 L658.82,247.03 C657.321,248.899 656.105,250.978 655.21,253.2 C654.315,255.422 659.36,257.74 658.53,262.82 C657.7,267.9 659.8,274.23 659.9,274.58 C659.65,274.3 656.74,271.14 653.83,271.91 C650.92,272.68 642.83,275.12 642.83,275.12 C642.83,275.12 636.75,276.19 637.31,277.53 C637.87,278.87 633.16,284.75 633.16,284.75 L616.83,269.27 C616.67,268.81 616.51,268.35 616.36,267.87 C615.679,265.658 615.204,263.389 614.94,261.09 C616.718,260.666 618.463,260.111 620.16,259.43 C621.877,258.845 623.428,257.853 624.68,256.54 C626.32,254.54 626.68,251.93 627.31,249.54 C628.6,244.78 631.38,240.54 633.37,236.03 C636.731,228.411 637.862,219.995 636.63,211.76 C636.372,209.227 635.512,206.792 634.12,204.66 C631.46,200.99 626.62,199.5 623.12,196.57 C619.62,193.64 617.34,189.18 613.24,186.98 C609.54,184.98 605.02,185.23 600.85,185.91 C592.678,187.255 584.827,190.111 577.7,194.33 C575.32,195.74 572.7,197.33 569.96,196.87 C567.62,196.45 565.9,194.57 564.39,192.78 C564.409,192.702 564.432,192.625 564.46,192.55 L564.28,192.34 C562.551,196.179 561.684,200.35 561.74,204.56 C561.74,205.21 561.74,205.86 561.82,206.56 C561.82,206.79 561.82,207.02 561.82,207.25 C561.835,207.436 561.835,207.624 561.82,207.81 L561.82,207.81 C561.82,208.101 561.78,208.39 561.7,208.67 C561.353,209.507 560.831,210.26 560.17,210.88 C559.671,211.441 559.226,212.047 558.84,212.69 C558.91,212.47 558.98,212.25 559.06,212.03 C558.018,213.547 557.432,215.331 557.37,217.17 C557.281,218.514 557.722,219.839 558.6,220.86 C559.414,221.659 560.305,222.376 561.26,223 C558.954,235.849 564.901,248.773 576.16,255.38 C576.35,255.84 576.53,256.31 576.72,256.78 C578.8,262.28 580.37,268.68 579.72,274.59 C579.66,275.03 579.6,275.46 579.52,275.89 C579.31,276.11 579.11,276.34 578.93,276.57 L578.93,276.57 C578.93,276.57 551.93,276.83 545.62,271.08 C539.31,265.33 529.62,285.08 529.62,285.08 C529.62,285.08 519.95,286.96 518.02,285.08 C516.09,283.2 504.76,284.82 504.76,284.82 C504.76,284.82 497.85,278.13 487.91,278.67 C484.134,275.801 479.969,273.484 475.54,271.79 L475.54,271.79 L475.23,271.68 L475.23,271.68 C473.285,270.977 471.209,270.714 469.15,270.91 C467.091,271.106 455.89,259.91 452.03,254.07 C448.17,248.23 429.74,226.37 429.66,226.27 L429.59,225.27 L429.38,222.09 C428.834,222.176 428.283,222.223 427.73,222.23 L427.36,221.13 C426.302,218.028 424.991,215.018 423.44,212.13 C421.889,209.242 423.44,208.13 424.61,207.13 C425.78,206.13 424.13,191.42 424.13,191.42 C424.13,191.42 412.18,163.48 401.48,184.34 C401.48,184.34 381.25,197.83 398.23,213.54 C398.23,213.54 405,216.83 405.96,219.43 C406.59,221.12 408.89,225.83 410.44,228.97 C410.7,229.49 410.93,229.97 411.13,230.37 L410.94,230.53 L411.19,233.15 L411.29,234.15 C408.09,235.97 405.92,237.76 406.45,239.15 C407.395,241.466 408.044,243.892 408.38,246.37 C408.716,248.848 431.86,275.78 434.9,288.37 C434.9,288.37 497.9,325.8 518.6,328.48 L515.01,347.19 C515.01,347.19 513.9,358.42 514.18,362.43 C514.46,366.44 511.69,384.63 511.69,384.63 C511.69,384.63 508.1,411.36 505.06,415.1 C502.02,418.84 502.58,434.89 502.58,434.89 C501.848,442.571 500.46,450.176 498.43,457.62 C495.43,467.78 497.61,480.34 497.61,480.34 C497.61,480.34 487.11,504.41 512.25,488.1 C512.25,488.1 524.59,487.33 538.8,486.85 Q538.8,487.54 538.8,488.26 C538.8,490.09 538.74,492.07 538.72,494.16 C538.53,507.94 538.45,526.93 539.07,541.3 C540.17,566.7 547.91,616.97 547.91,616.97 L547.91,642.22 C547.411,644.594 547.166,647.014 547.18,649.44 C547.01,658.342 549.371,667.108 553.99,674.72 L555.7,691.39 C555.7,691.39 560.24,702.49 560.33,709.12 C560.308,709.661 560.242,710.2 560.13,710.73 C559.961,711.579 559.887,712.445 559.91,713.31 C559.65,720.96 564.26,739.25 564.26,739.25 C564.26,739.25 564.54,757.7 567.26,758.77 C569.62,759.68 564.11,769.4 562.46,772.19 C562.46,772.01 562.39,771.84 562.36,771.66 C562.15,772.02 562.02,772.22 562.02,772.22 C561.452,773.708 561.161,775.287 561.16,776.88 C560.841,779.453 562.032,781.979 564.22,783.37 C569.47,786.58 572.29,789.25 567.84,790.37 C566.201,790.62 564.575,790.954 562.97,791.37 C562.89,791.16 562.81,790.95 562.74,790.75 C561.461,791.278 560.709,792.612 560.92,793.98 C560.8,795.33 561.25,797.3 562.57,800.24 C566.99,810.13 570.05,813.88 570.05,813.88 L572.17,813.64 C571.847,814.444 571.434,815.209 570.94,815.92 C570.133,817.08 569.06,818.03 567.81,818.69 C566.66,819.384 565.374,819.824 564.04,819.98 C561.008,820.081 558.161,821.466 556.21,823.79 C553.46,827.35 551.73,832.21 557.21,836.47 L576.97,843.29 C576.97,843.29 610.97,847.7 609.14,840.08 C607.31,832.46 606.25,825.78 606.25,825.78 C606.25,825.78 606.63,818.34 603.49,812.26 C603.139,811.565 602.738,810.897 602.29,810.26 L603.49,810.12 C603.49,810.12 605.97,793.28 609.29,790.12 C610.05,789.38 610.22,788.81 610.04,788.38 C610.39,787.46 609.52,786.92 608.41,786.62 L608.17,787.28 C607.086,787.043 605.98,786.919 604.87,786.91 C603.76,786.901 603.76,778.09 607.35,774.91 C607.941,774.174 608.195,773.223 608.05,772.29 C608.08,771.082 607.956,769.876 607.68,768.7 C607.68,768.76 607.6,768.84 607.55,768.9 C605.74,760.9 599.62,748.17 599.62,748.17 C599.62,748.17 599.34,740.17 601.55,736.95 C603.76,733.73 601.28,693.36 601.28,693.36 C601.28,693.36 602.11,673.85 599.62,664.76 C597.13,655.67 602.62,644.97 602.62,644.97 C602.62,644.97 602.62,644.76 602.56,644.39 L602.63,644.25 C602.63,644.25 602.51,643.05 602.31,641.18 C602.282,641.238 602.259,641.298 602.24,641.36 C601.69,636.2 600.63,626.84 599.86,622.51 C598.75,616.36 600.13,586.95 600.13,586.95 L605.13,574.39 L613.97,596.04 L623.37,624.92 C623.37,624.92 628.02,631.02 628.13,637.2 C628.13,637.5 628.13,637.8 628.07,638.1 C627.995,638.741 627.958,639.385 627.96,640.03 C627.794,643.677 628.796,647.282 630.82,650.32 C632.844,653.358 633.31,663.95 637.18,667.43 C641.05,670.91 641.04,677.59 641.04,677.59 C641.04,677.59 645.74,697.37 647.95,700.85 C649.81,703.78 649.95,711.85 649.89,714.3 L649.89,714.3 C649.89,714.76 649.89,715.02 649.89,715.02 C649.89,715.02 650.54,722.09 650.52,728.02 C650.52,728.75 650.52,729.46 650.45,730.13 L650.45,729.98 C650.443,731.6 650.252,733.214 649.88,734.79 C649.847,734.878 649.821,734.968 649.8,735.06 C649.8,734.73 649.8,734.39 649.88,734.06 C648.917,738.098 648.454,742.239 648.5,746.39 C648.37,753.5 649.5,761.93 653.76,766.87 C661.22,775.43 665.92,774.36 665.92,774.36 C665.92,774.36 662.32,785.05 657.92,787.19 C657.754,787.275 657.597,787.375 657.45,787.49 C657.45,787.28 657.37,787.08 657.34,786.87 C656.42,787.67 656.05,789.11 656.05,790.87 C655.73,795.57 658.69,803.21 661.52,806.72 C662.564,807.744 663.846,808.493 665.25,808.9 C665.024,809.055 664.79,809.198 664.55,809.33 C664.059,809.599 663.551,809.836 663.03,810.04 C662.316,810.356 661.557,810.555 660.78,810.63 C657.745,810.699 654.886,812.069 652.93,814.39 C650.18,817.94 648.45,822.8 653.93,827.06 L673.69,833.88 C673.69,833.88 707.63,838.28 705.82,830.66 z" fill="url(#Gradient_6)"/>
    <path d="M576.06,843.29 L556.94,836.47 C551.66,832.21 553.34,827.35 556.01,823.79 C557.862,821.483 560.624,820.093 563.58,819.98 C564.876,819.822 566.122,819.381 567.23,818.69 C568.436,818.019 569.465,817.069 570.23,815.92 C571.629,813.707 572.383,811.148 572.41,808.53 C572.436,805.912 593.41,802.38 599.15,808.53 C600.175,809.642 601.031,810.899 601.69,812.26 C604.69,818.34 604.37,825.78 604.37,825.78 C604.37,825.78 605.44,832.45 607.17,840.08 C608.9,847.71 576.06,843.29 576.06,843.29 z" fill="#2D293D"/>
    <path d="M669.63,833.87 L650.51,827.05 C645.24,822.79 646.92,817.93 649.58,814.38 C651.428,812.068 654.192,810.677 657.15,810.57 C657.908,810.496 658.648,810.297 659.34,809.98 C659.845,809.775 660.336,809.538 660.81,809.27 C666.16,806.33 666.02,799.11 666.02,799.11 C666.02,799.11 687.02,792.96 692.76,799.11 C693.528,799.941 694.199,800.857 694.76,801.84 C698.36,808.06 697.96,816.36 697.96,816.36 C697.96,816.36 699.03,823.04 700.77,830.66 C702.51,838.28 669.63,833.87 669.63,833.87 z" fill="#2D293D"/>
    <path d="M599.18,808.53 C600.205,809.642 601.061,810.899 601.72,812.26 L601.72,812.26 L570.26,815.91 C571.659,813.697 572.414,811.138 572.44,808.52 C572.466,805.902 593.44,802.39 599.18,808.53 z" fill="#000000" opacity="0.1"/>
    <path d="M694.77,801.84 L694.77,807.73 C689.88,815.79 666.21,814.03 659.34,809.98 C659.845,809.775 660.336,809.538 660.81,809.27 C666.16,806.33 666.02,799.11 666.02,799.11 C666.02,799.11 687.02,792.96 692.76,799.11 C693.532,799.94 694.206,800.856 694.77,801.84 z" fill="#000000" opacity="0.1"/>
    <path d="M698.51,776.45 C697.043,779.008 695.792,781.684 694.77,784.45 L694.77,805.59 C689.42,814.41 661.61,811.47 657.87,806.66 C654.13,801.85 650.12,789.28 654.39,787.14 C658.66,785 662.13,774.31 662.13,774.31 C662.13,774.31 657.58,775.38 650.36,766.82 C643.14,758.26 645.28,739.28 646.63,734.74 C647.98,730.2 646.63,714.95 646.63,714.95 C646.63,714.95 646.9,704.26 644.76,700.78 C642.62,697.3 638.13,677.52 638.13,677.52 C638.13,677.52 638.13,670.84 634.38,667.36 C630.63,663.88 628.23,650.25 628.23,650.25 C626.042,646.842 625.098,642.783 625.56,638.76 C626.36,632.07 621.01,624.85 621.01,624.85 L611.92,595.98 L603.37,574.32 L598.56,586.89 C598.56,586.89 597.22,616.3 598.29,622.45 C599.36,628.6 600.96,644.91 600.96,644.91 C600.96,644.91 595.62,655.6 598.02,664.69 C600.42,673.78 599.63,693.3 599.63,693.3 C599.63,693.3 602.03,733.67 599.89,736.88 C597.75,740.09 598.02,748.11 598.02,748.11 C598.02,748.11 609.02,771.63 605.51,774.84 C602,778.05 603.1,786.84 603.1,786.84 C603.1,786.84 610.59,786.84 607.38,790.05 C604.17,793.26 601.76,810.05 601.76,810.05 L569.44,813.8 C569.44,813.8 566.44,810.05 562.2,800.16 C557.96,790.27 563,791.34 567.3,790.27 C571.6,789.2 568.88,786.53 563.8,783.27 C558.72,780.01 561.66,772.84 561.66,772.84 C561.66,772.84 569.41,759.74 566.74,758.67 C564.07,757.6 563.8,739.15 563.8,739.15 C563.8,739.15 558.45,717.23 559.8,711.35 C561.15,705.47 555.47,691.39 555.47,691.39 L553.6,674.54 C543.97,657.97 547.72,642.73 547.72,642.73 L547.72,616.83 C547.72,616.83 540.23,566.57 539.16,541.17 C538.48,524.9 538.67,502.7 538.89,488.85 C539.02,481.08 539.16,475.93 539.16,475.93 L654.66,463.93 C654.66,463.93 654.54,469.26 656.76,481.09 C657.93,487.43 659.76,495.64 662.68,505.91 C670.97,535.32 665.89,557.24 665.89,557.24 L664.82,594.39 C664.82,594.39 674.98,619.26 672.82,627.81 C671.538,632.885 670.82,638.087 670.68,643.32 C670.54,648.553 693.43,697.58 691.02,713.39 C688.61,729.2 698.51,754.03 698.51,754.03 C698.51,754.03 701.18,771.63 698.51,776.45 z" fill="#575988"/>
    <path d="M632.47,637.15 L667.63,632.47 C667.63,632.47 647.71,652.79 632.47,637.15 z" fill="#000000" opacity="0.05"/>
    <path d="M662.55,598.12 C662.55,598.12 663.75,610.55 656.13,615.23 C656.13,615.23 669.77,613.09 662.55,598.12 z" fill="#000000" opacity="0.1"/>
    <path d="M660.39,558.55 C660.39,558.55 631,582.74 620.31,580.74 C609.62,578.74 660.39,558.55 660.39,558.55 z" fill="#000000" opacity="0.1"/>
    <path d="M588.89,648.52 C588.89,648.52 566.57,653.59 565.89,662.52 C565.21,671.45 588.89,648.52 588.89,648.52 z" fill="#000000" opacity="0.1"/>
    <path d="M593.8,760 C593.8,760 562.25,765.89 571.21,769.9 C580.17,773.91 594.87,777.11 594.87,777.11 C594.87,777.11 605.03,777.65 593.8,760 z" fill="#000000" opacity="0.05"/>
    <g opacity="0.05">
      <path d="M564.84,776.26 C563.23,775.257 562.166,773.574 561.95,771.69 L561.63,772.25 C561.63,772.25 558.69,779.47 563.77,782.68 L565.42,783.76 C566.35,783.59 567.36,783.46 568.34,783.21 C572.64,782.14 569.92,779.47 564.84,776.26 z" fill="#000000"/>
      <path d="M605.48,774.12 C606.34,773.32 606.31,771.27 605.78,768.63 C604.36,770.7 604.02,773.92 603.99,776.37 C604.32,775.522 604.828,774.755 605.48,774.12 z" fill="#000000"/>
      <path d="M600.62,641.11 C599.451,644.27 598.734,647.579 598.49,650.94 C599.092,648.619 599.909,646.359 600.93,644.19 C601.951,642.021 600.81,642.98 600.62,641.11 z" fill="#000000"/>
      <path d="M672.85,627.07 C673.069,626.113 673.166,625.132 673.14,624.15 C672.75,626.15 672.47,628 672.27,629.62 C672.44,628.79 672.63,627.94 672.85,627.07 z" fill="#000000"/>
      <path d="M599.86,736.16 C600.3,735.5 600.54,733.3 600.66,730.22 C599.66,732.17 599.25,735.32 599.12,737.72 C599.304,737.173 599.552,736.649 599.86,736.16 z" fill="#000000"/>
      <path d="M606.49,786.58 C604.29,792.58 602.8,803 602.8,803 L570.47,806.74 C570.47,806.74 567.47,803 563.23,793.11 C562.86,792.24 562.56,791.46 562.32,790.75 C560.38,791.64 559.62,793.65 562.16,799.52 C566.44,809.41 569.4,813.16 569.4,813.16 L601.73,809.39 C601.73,809.39 604.14,792.55 607.35,789.39 C608.93,787.79 607.92,786.98 606.49,786.58 z" fill="#000000"/>
      <path d="M563.77,738.56 C563.77,738.56 564.04,757.01 566.71,758.08 L566.71,758.08 C568.06,755.03 568.96,752.08 567.71,751.65 C565.04,750.59 564.77,732.14 564.77,732.14 C564.77,732.14 559.42,710.21 560.77,704.33 C562.12,698.45 556.49,684.28 556.49,684.28 L554.62,667.44 C544.99,650.86 548.74,635.62 548.74,635.62 L548.74,609.7 C548.74,609.7 541.25,559.43 540.18,534.03 C539.5,517.77 539.69,495.57 539.91,481.72 C539.91,479.21 540,476.99 540.04,475.12 L539.11,475.21 C539.11,475.21 538.97,480.36 538.84,488.13 C538.62,501.98 538.43,524.13 539.11,540.45 C540.18,565.85 547.67,616.11 547.67,616.11 L547.67,642.05 C547.67,642.05 543.92,657.29 553.55,673.86 L555.42,690.71 C555.42,690.71 561.03,704.88 559.7,710.71 C558.37,716.54 563.77,738.56 563.77,738.56 z" fill="#000000"/>
      <path d="M658.95,799.52 C656.323,795.719 654.574,791.381 653.83,786.82 C650.53,789.82 654.32,801.37 657.83,805.94 C661.57,810.75 689.38,813.69 694.73,804.87 L694.73,799.78 C687.55,806.95 662.49,804.07 658.95,799.52 z" fill="#000000"/>
      <path d="M699.59,769.31 C698.118,771.867 696.863,774.543 695.84,777.31 L695.84,781.06 C696.45,779.69 697.32,777.86 698.52,775.71 C699.29,774.32 699.61,771.87 699.69,769.08 C699.65,769.17 699.62,769.25 699.59,769.31 z" fill="#000000"/>
      <path d="M660.59,773.52 C661.613,771.466 662.495,769.344 663.23,767.17 C663.965,764.996 658.68,768.24 651.46,759.69 C646.21,753.46 645.91,741.69 646.66,734.02 C645.31,738.57 643.18,757.55 650.39,766.1 C655.13,771.7 658.68,773.17 660.59,773.52 z" fill="#000000"/>
      <path d="M646.65,714.23 C647.121,719.499 647.298,724.791 647.18,730.08 C647.317,729.244 647.501,728.416 647.73,727.6 C649.08,723.06 647.73,707.82 647.73,707.82 C647.73,707.82 648,697.12 645.86,693.65 C643.72,690.18 639.13,670.39 639.13,670.39 C639.13,670.39 639.13,663.7 635.39,660.23 C631.65,656.76 629.24,643.12 629.24,643.12 C627.053,639.708 626.109,635.646 626.57,631.62 C627.37,624.94 622.02,617.72 622.02,617.72 L612.93,588.84 L604.38,567.19 L599.56,579.75 C599.56,579.75 599.49,581.33 599.4,583.81 L603.31,573.6 L611.86,595.26 L620.95,624.13 C620.95,624.13 626.3,631.35 625.5,638.04 C625.039,642.063 625.982,646.122 628.17,649.53 C630.358,652.938 630.58,663.17 634.32,666.64 C638.06,670.11 638.13,676.8 638.13,676.8 C638.13,676.8 642.68,696.59 644.82,700.06 C646.96,703.53 646.65,714.23 646.65,714.23 z" fill="#000000"/>
    </g>
    <path d="M669.13,222.39 L667.13,232.15 L667.25,236.49 L667.33,239.7 L656.13,240.8 L654.88,238.49 L654.88,238.49 C652.57,234.31 647.78,225.8 646.22,224.49 C644.16,222.75 640.48,195.61 644.9,197.22 C647.593,198.262 649.805,200.264 651.11,202.84 C652.415,205.416 673.05,205.39 669.13,222.39 z" fill="#FFCDD3"/>
    <path d="M667.29,239.65 L656.13,240.8 L654.88,238.49 L654.88,238.49 C656.48,236.84 661.05,233.09 667.2,236.49 z" fill="#000000" opacity="0.1"/>
    <path d="M670.13,244.93 L655.4,248.39 L655.09,246.19 L654.26,240.3 C654.26,240.3 660.07,232.54 668.5,238.35 L669.23,241.35 z" fill="#DCE6F2"/>
    <path d="M431.81,223.39 L416.13,231.83 C416.13,231.83 415.53,230.59 414.71,228.83 C413.21,225.7 410.99,220.98 410.38,219.29 C409.45,216.69 402.89,213.41 402.89,213.41 C386.46,197.7 406.04,184.2 406.04,184.2 C416.4,163.35 427.96,191.28 427.96,191.28 C427.96,191.28 429.56,206 428.43,206.99 C427.3,207.98 427.3,211.99 427.3,211.99 C428.8,214.884 430.064,217.893 431.08,220.99 C431.55,222.49 431.81,223.39 431.81,223.39 z" fill="#FFCDD3"/>
    <path d="M431.81,223.39 L416.13,231.83 C416.13,231.83 415.53,230.59 414.71,228.83 C416.92,226.98 424.78,220.61 427.36,220.9 C428.594,221.053 429.84,221.083 431.08,220.99 C431.55,222.49 431.81,223.39 431.81,223.39 z" fill="#000000" opacity="0.1"/>
    <path d="M433.42,228.15 L415.77,236.85 L415.42,233.05 L415.13,230.39 C415.13,230.39 425.35,221.63 428.37,221.97 C429.898,222.195 431.452,222.195 432.98,221.97 L433.18,225.15 z" fill="#DCE6F2"/>
    <path d="M626.32,287.18 C626.32,287.18 549.38,295.86 563.76,291.18 C573.76,287.92 577.76,281.55 578.58,274.49 C579.26,268.58 577.74,262.19 575.72,256.69 C573.903,251.836 571.598,247.179 568.84,242.79 C566.082,238.401 627.66,210.43 615.84,239.79 C614.027,244.24 612.904,248.941 612.51,253.73 C612.15,258.486 612.662,263.268 614.02,267.84 C616.248,275.302 620.506,281.998 626.32,287.18 z" fill="#FFCDD3"/>
    <path d="M615.89,239.85 C614.077,244.3 612.954,249.001 612.56,253.79 C607.02,258.44 600.94,258.14 593.14,258.14 C587.14,258.14 580.51,259.59 575.72,256.7 C573.903,251.846 571.598,247.189 568.84,242.8 C566.082,238.411 627.66,210.44 615.89,239.85 z" fill="#000000" opacity="0.1"/>
    <path d="M623.92,228.36 C623.92,245.934 609.674,260.18 592.1,260.18 C574.526,260.18 560.28,245.934 560.28,228.36 C560.28,210.786 574.526,196.54 592.1,196.54 C609.674,196.54 623.92,210.786 623.92,228.36 z" fill="#FFCDD3"/>
    <path d="M626.32,287.18 C626.32,287.18 549.38,295.86 563.76,291.18 C573.76,287.92 577.76,281.55 578.58,274.49 C582.41,270.35 590.11,267.35 595.05,265.76 C599.58,264.235 604.472,264.154 609.05,265.53 C610.846,266.065 612.554,266.86 614.12,267.89 C616.328,275.323 620.551,281.999 626.32,287.18 z" fill="#000000" opacity="0.1"/>
    <path d="M670.13,244.93 L655.4,248.39 L655.09,246.19 C659.24,240.89 664.47,240.25 669.23,241.36 z" fill="#000000" opacity="0.1"/>
    <path d="M433.42,228.15 L415.77,236.85 L415.42,233.05 C421.73,229.33 432.3,225.5 433.22,225.17 z" fill="#000000" opacity="0.1"/>
    <path d="M656.76,481.06 C626.96,485.76 584.55,491.89 577.82,489.84 C572.24,488.14 554.41,488.32 538.89,488.84 C539.02,481.07 539.16,475.92 539.16,475.92 L654.66,463.92 C654.66,463.92 654.54,469.23 656.76,481.06 z" fill="#000000" opacity="0.1"/>
    <path d="M686.48,474.06 C686.48,474.06 588.36,490.91 577.82,487.7 C567.28,484.49 513.23,487.97 513.23,487.97 C488.9,504.27 499.06,480.21 499.06,480.21 C499.06,480.21 496.92,467.65 499.86,457.49 C501.821,450.037 503.159,442.434 503.86,434.76 C504.561,427.086 503.33,418.76 506.27,414.98 C509.21,411.2 512.68,384.5 512.68,384.5 C512.68,384.5 515.36,366.32 515.09,362.31 C514.82,358.3 515.89,347.07 515.89,347.07 L519.38,328.39 C499.38,325.72 438.38,288.29 438.38,288.29 C435.44,275.72 412.71,246.29 412.71,246.29 C412.38,243.817 411.752,241.393 410.84,239.07 C409.23,234.79 433.3,226.24 433.3,226.24 C433.3,226.24 451.21,248.16 454.95,254.04 C458.69,259.92 471.53,270.89 471.53,270.89 C473.523,270.685 475.537,270.949 477.41,271.66 C477.52,271.66 477.61,271.72 477.72,271.75 C477.83,271.78 477.72,271.75 477.72,271.75 C483.72,273.84 489.72,278.62 489.72,278.62 C499.35,278.09 506.03,284.77 506.03,284.77 C506.03,284.77 517.03,283.17 518.86,285.04 C520.69,286.91 530.09,285.04 530.09,285.04 C530.09,285.04 539.45,265.25 545.6,271.04 C551.75,276.83 577.84,276.52 577.84,276.52 C581.32,271.9 589.78,268.59 595.07,266.88 C599.6,265.355 604.492,265.274 609.07,266.65 C611.043,267.212 612.904,268.112 614.57,269.31 L630.4,284.81 C630.4,284.81 634.95,278.93 634.4,277.59 C633.85,276.25 639.75,275.19 639.75,275.19 C639.75,275.19 647.5,272.78 650.44,271.98 C653.38,271.18 656.08,274.36 656.32,274.64 C656.22,274.3 654.21,267.83 654.99,262.89 C655.77,257.95 651.78,253.26 651.78,253.26 C661.14,230.26 682.26,249.52 682.26,249.52 C682.26,249.52 684.67,262.09 682.53,266.9 C680.39,271.71 684.67,281.9 684.13,284.54 C683.59,287.18 685.2,291.76 685.2,296.84 C685.2,301.92 682.53,311.55 680.92,315.84 C679.31,320.13 666.43,329.69 666.43,329.69 C666.43,329.69 665.62,344.93 660.01,353.75 C654.4,362.57 657.87,392.75 657.87,392.75 C657.87,392.75 663.22,416.28 669.87,423.75 C676.52,431.22 686.48,474.06 686.48,474.06 z" fill="#656691"/>
    <path d="M543.44,298.14 C543.44,298.14 540.5,289.32 537.83,288.51 C535.167,287.531 532.575,286.372 530.07,285.04 L531.79,281.75 C531.79,281.75 541.84,284.5 543.44,287.44 C545.04,290.38 543.44,298.14 543.44,298.14 z" fill="#000000" opacity="0.1"/>
    <path d="M489.7,278.62 C489.17,281.3 465.37,283.7 465.37,283.7 L477.37,271.64 L477.37,271.64 L477.67,271.74 C477.67,271.74 477.67,271.74 477.67,271.74 C483.75,273.84 489.7,278.62 489.7,278.62 z" fill="#000000" opacity="0.1"/>
    <path d="M422.99,241.92 C422.99,243.102 422.032,244.06 420.85,244.06 C419.668,244.06 418.71,243.102 418.71,241.92 C418.71,240.738 419.668,239.78 420.85,239.78 C422.032,239.78 422.99,240.738 422.99,241.92 z" fill="#575988"/>
    <path d="M425.73,246.2 C425.73,247.382 424.772,248.34 423.59,248.34 C422.408,248.34 421.45,247.382 421.45,246.2 C421.45,245.018 422.408,244.06 423.59,244.06 C424.772,244.06 425.73,245.018 425.73,246.2 z" fill="#575988"/>
    <path d="M428.41,250.15 C428.41,251.332 427.452,252.29 426.27,252.29 C425.088,252.29 424.13,251.332 424.13,250.15 C424.13,248.968 425.088,248.01 426.27,248.01 C427.452,248.01 428.41,248.968 428.41,250.15 z" fill="#575988"/>
    <path d="M431.21,254.42 C431.21,255.602 430.252,256.56 429.07,256.56 C427.888,256.56 426.93,255.602 426.93,254.42 C426.93,253.238 427.888,252.28 429.07,252.28 C430.252,252.28 431.21,253.238 431.21,254.42 z" fill="#575988"/>
    <path d="M682.83,254.19 C682.83,255.151 682.051,255.93 681.09,255.93 C680.129,255.93 679.35,255.151 679.35,254.19 C679.35,253.229 680.129,252.45 681.09,252.45 C682.051,252.45 682.83,253.229 682.83,254.19 z" fill="#575988"/>
    <path d="M683.1,258.13 C683.1,259.091 682.321,259.87 681.36,259.87 C680.399,259.87 679.62,259.091 679.62,258.13 C679.62,257.169 680.399,256.39 681.36,256.39 C682.321,256.39 683.1,257.169 683.1,258.13 z" fill="#575988"/>
    <path d="M683.34,262.08 C683.34,263.041 682.561,263.82 681.6,263.82 C680.639,263.82 679.86,263.041 679.86,262.08 C679.86,261.119 680.639,260.34 681.6,260.34 C682.561,260.34 683.34,261.119 683.34,262.08 z" fill="#575988"/>
    <path d="M543.57,370.59 C543.33,370.28 603.57,446.39 650.38,402.41 C650.38,402.39 576.46,412.44 543.57,370.59 z" fill="#000000" opacity="0.1"/>
    <path d="M508.95,410.16 C508.95,410.16 545.01,411.16 548.79,421.52 L548.79,432.31 C546.705,433.477 544.165,433.477 542.08,432.31 C538.44,430.31 516.64,419.31 508.95,424.6 z" fill="#000000" opacity="0.1"/>
    <path d="M509.62,410.16 C509.62,410.16 544.11,411.1 547.72,420.99 L547.72,431.28 C545.725,432.395 543.295,432.395 541.3,431.28 C537.83,429.41 516.97,418.85 509.62,423.93 z" fill="#656691"/>
    <path d="M528.64,331.85 C528.64,331.85 532.77,342.47 542.64,355.85 C548.742,364.037 556.135,371.177 564.53,376.99 C572.925,382.803 529.24,336.81 528.64,331.85 z" fill="#000000" opacity="0.1"/>
    <path d="M516.84,289.94 C516.84,289.94 522.84,315.94 538.36,324.74 z" fill="#000000" opacity="0.1"/>
    <path d="M507.61,292.57 C507.46,292.09 502.27,313.11 527.61,324.74 C527.6,324.74 516.84,321.09 507.61,292.57 z" fill="#000000" opacity="0.1"/>
    <path d="M665.13,275.15 C664.73,275.15 677.63,283.36 681.13,287.15 C681.13,287.18 672.71,274.61 665.13,275.15 z" fill="#000000" opacity="0.1"/>
    <path d="M583.5,257.2 C583.95,258.84 584.5,260.64 585.98,261.5 C586.916,261.95 587.942,262.179 588.98,262.17 C598.68,262.77 608.77,263.17 617.75,259.46 C619.422,258.865 620.922,257.869 622.12,256.56 C623.71,254.61 624.02,251.96 624.66,249.56 C625.92,244.81 628.6,240.56 630.54,236.05 C633.791,228.404 634.88,220.013 633.69,211.79 C633.44,209.264 632.608,206.83 631.26,204.68 C628.68,201.01 624,199.52 620.59,196.6 C617.18,193.68 615,189.21 611.03,187.01 C607.45,185.01 603.03,185.26 599.03,185.94 C591.096,187.293 583.494,190.147 576.63,194.35 C574.33,195.77 571.8,197.4 569.14,196.9 C566.82,196.46 565.14,194.51 563.64,192.68 C561.74,197.041 560.92,201.795 561.25,206.54 C561.352,207.235 561.328,207.943 561.18,208.63 C560.851,209.461 560.346,210.212 559.7,210.83 C557.31,213.61 555.81,218.01 558.18,220.83 C559.18,222.05 560.79,222.72 561.79,223.96 C563.59,226.2 562.98,229.41 562.94,232.27 C562.833,233.263 563.081,234.262 563.64,235.09 C564.54,236.18 566.18,236.27 567.57,236.03 C568.96,235.79 570.38,235.32 571.75,235.63 C573.244,236.127 574.526,237.114 575.39,238.43 C579.87,244.08 581.62,250.39 583.5,257.2 z" fill="#2D293D"/>
    <g opacity="0.1">
      <path d="M623.19,254.11 C621.992,255.419 620.492,256.415 618.82,257.01 C609.82,260.75 599.75,260.32 590.05,259.71 C589.012,259.727 587.985,259.501 587.05,259.05 C585.58,258.18 585.05,256.39 584.57,254.75 C582.69,247.89 580.94,241.63 576.46,235.93 C575.596,234.614 574.314,233.627 572.82,233.13 C571.45,232.82 570.03,233.29 568.64,233.53 C567.25,233.77 565.64,233.68 564.71,232.59 C564.151,231.762 563.903,230.763 564.01,229.77 C564.01,226.91 564.65,223.69 562.86,221.46 C561.86,220.21 560.28,219.55 559.24,218.33 C557.76,216.56 557.8,214.17 558.63,211.94 C556.93,214.64 556.19,218.11 558.18,220.46 C559.18,221.69 560.79,222.35 561.79,223.6 C563.58,225.83 562.98,229.05 562.94,231.91 C562.833,232.903 563.081,233.902 563.64,234.73 C564.54,235.82 566.18,235.91 567.57,235.67 C568.96,235.43 570.38,234.96 571.75,235.27 C573.244,235.767 574.526,236.754 575.39,238.07 C579.87,243.77 581.62,250.07 583.5,256.89 C583.95,258.52 584.5,260.32 585.98,261.19 C586.915,261.641 587.942,261.867 588.98,261.85 C598.68,262.46 608.77,262.85 617.75,259.15 C619.422,258.555 620.922,257.559 622.12,256.25 C622.726,255.477 623.193,254.604 623.5,253.67 C623.4,253.82 623.3,253.97 623.19,254.11 z" fill="#000000"/>
      <path d="M561.28,207.75 C561.723,207.29 562.064,206.741 562.28,206.14 C562.428,205.453 562.452,204.745 562.35,204.05 C562.086,200.153 562.593,196.242 563.84,192.54 L563.67,192.33 C561.769,196.69 560.95,201.445 561.28,206.19 C561.33,206.709 561.33,207.231 561.28,207.75 z" fill="#000000"/>
    </g>
    <path d="M577.82,276.48 C577.82,276.48 617.57,281.75 621.14,275.78" fill="#000000" opacity="0.1"/>
    <path d="M655.13,260.04 C655.13,260.04 677.21,260.04 682.07,268.34" fill="#000000" opacity="0.1"/>
  </g>
</svg>
