<?xml version="1.0" encoding="UTF-8"?>
<!DOCTYPE svg PUBLIC "-//W3C//DTD SVG 1.1//EN" "http://www.w3.org/Graphics/SVG/1.1/DTD/svg11.dtd">
<svg version="1.1" xmlns="http://www.w3.org/2000/svg" xmlns:xlink="http://www.w3.org/1999/xlink" x="0" y="0" width="1015.164" height="411.709" viewBox="0, 0, 1015.164, 411.709">
  <g id="Layer_1_Copy" transform="translate(-6322.643, -4846.838)">
    <path d="M6603.629,4852.004 L6603.629,5049.66 Q6603.629,5114.123 6567.13,5149.499 Q6530.631,5184.875 6461.901,5184.875 Q6394.743,5184.875 6358.693,5150.51 Q6322.643,5116.145 6322.643,5051.682 L6322.643,4852.004 L6411.813,4852.004 L6411.813,5044.719 Q6411.813,5079.533 6424.84,5095.256 Q6437.868,5110.979 6463.249,5110.979 Q6490.426,5110.979 6502.667,5095.368 Q6514.909,5079.758 6514.909,5044.27 L6514.909,4852.004 z" fill="#000000"/>
    <path d="M6950.355,5180.383 L6861.186,5180.383 L6861.186,5046.516 L6758.09,5046.516 L6758.09,5180.383 L6668.92,5180.383 L6668.92,4852.004 L6758.09,4852.004 L6758.09,4973.742 L6861.186,4973.742 L6861.186,4852.004 L6950.355,4852.004 z" fill="#370BD5"/>
    <path d="M7328.598,5015.744 Q7328.598,5127.375 7257.621,5166.232 L7337.807,5258.547 L7227.299,5258.547 L7169.35,5185.549 L7169.125,5185.324 L7169.125,5185.1 L7168.9,5184.875 Q7091.635,5184.875 7050.419,5141.525 Q7009.203,5098.176 7009.203,5015.295 Q7009.203,4933.312 7050.194,4890.075 Q7091.186,4846.838 7169.35,4846.838 Q7247.738,4846.838 7288.168,4889.738 Q7328.598,4932.639 7328.598,5015.744 z M7102.641,5015.744 Q7102.641,5110.979 7168.9,5110.979 Q7202.592,5110.979 7218.876,5087.844 Q7235.16,5064.709 7235.16,5015.744 Q7235.16,4966.555 7218.651,4943.083 Q7202.143,4919.611 7169.35,4919.611 Q7102.641,4919.611 7102.641,5015.744 z" fill="#370BD5"/>
  </g>
</svg>
