<?xml version="1.0" encoding="UTF-8"?>
<!DOCTYPE svg PUBLIC "-//W3C//DTD SVG 1.1//EN" "http://www.w3.org/Graphics/SVG/1.1/DTD/svg11.dtd">
<svg version="1.1" xmlns="http://www.w3.org/2000/svg" xmlns:xlink="http://www.w3.org/1999/xlink" x="0" y="0" width="1304.756" height="205.854" viewBox="0, 0, 2609.512, 411.709">
  <g id="Layer_1_Copy" transform="translate(-4705.124, -4118.535)">
    <path d="M4986.11,4123.701 L4986.11,4321.357 Q4986.11,4385.82 4949.611,4421.196 Q4913.112,4456.572 4844.381,4456.572 Q4777.223,4456.572 4741.173,4422.207 Q4705.124,4387.841 4705.124,4323.378 L4705.124,4123.701 L4794.293,4123.701 L4794.293,4316.416 Q4794.293,4351.23 4807.321,4366.953 Q4820.348,4382.675 4845.729,4382.675 Q4872.907,4382.675 4885.148,4367.065 Q4897.389,4351.455 4897.389,4315.966 L4897.389,4123.701 z" fill="#000000"/>
    <path d="M5367.721,4452.08 L5251.374,4452.08 L5131.432,4220.732 L5129.411,4220.732 Q5133.678,4275.312 5133.678,4304.062 L5133.678,4452.08 L5055.065,4452.08 L5055.065,4123.701 L5170.963,4123.701 L5290.456,4351.904 L5291.803,4351.904 Q5288.659,4302.265 5288.659,4272.167 L5288.659,4123.701 L5367.721,4123.701 z" fill="#000000"/>
    <path d="M5677.008,4228.144 Q5677.008,4283.173 5644.552,4313.159 Q5612.096,4343.144 5552.35,4343.144 L5527.418,4343.144 L5527.418,4452.08 L5438.698,4452.08 L5438.698,4123.701 L5552.35,4123.701 Q5614.567,4123.701 5645.788,4150.878 Q5677.008,4178.056 5677.008,4228.144 z M5527.418,4270.82 L5543.59,4270.82 Q5563.581,4270.82 5575.373,4259.589 Q5587.165,4248.359 5587.165,4228.593 Q5587.165,4195.351 5550.329,4195.351 L5527.418,4195.351 z" fill="#000000"/>
    <path d="M5907.907,4452.08 L5891.735,4390.537 L5785.045,4390.537 L5768.424,4452.08 L5670.944,4452.08 L5778.083,4122.353 L5896.452,4122.353 L6004.938,4452.08 z M5873.317,4317.763 L5859.167,4263.857 Q5854.225,4245.888 5847.15,4217.363 Q5840.075,4188.837 5837.829,4176.484 Q5835.807,4187.939 5829.855,4214.218 Q5823.903,4240.498 5803.463,4317.763 z" fill="#000000"/>
    <path d="M6177.438,4191.757 Q6145.768,4191.757 6128.024,4217.7 Q6110.28,4243.642 6110.28,4289.238 Q6110.28,4384.023 6182.379,4384.023 Q6204.167,4384.023 6224.606,4377.958 Q6245.045,4371.894 6265.709,4363.359 L6265.709,4438.378 Q6224.606,4456.572 6172.721,4456.572 Q6098.375,4456.572 6058.732,4413.447 Q6019.088,4370.322 6019.088,4288.789 Q6019.088,4237.802 6038.292,4199.169 Q6057.497,4160.537 6093.546,4139.76 Q6129.596,4118.984 6178.336,4118.984 Q6231.569,4118.984 6280.084,4142.119 L6252.907,4211.972 Q6234.713,4203.437 6216.52,4197.597 Q6198.327,4191.757 6177.438,4191.757 z" fill="#000000"/>
    <path d="M6610.26,4452.08 L6510.084,4452.08 L6445.172,4326.523 L6418.893,4342.246 L6418.893,4452.08 L6329.723,4452.08 L6329.723,4123.701 L6418.893,4123.701 L6418.893,4266.328 Q6425.631,4253.076 6446.071,4224.326 L6515.026,4123.701 L6612.057,4123.701 L6508.512,4270.82 z" fill="#000000"/>
    <path d="M6927.184,4452.08 L6838.014,4452.08 L6838.014,4318.212 L6734.918,4318.212 L6734.918,4452.08 L6645.749,4452.08 L6645.749,4123.701 L6734.918,4123.701 L6734.918,4245.439 L6838.014,4245.439 L6838.014,4123.701 L6927.184,4123.701 z" fill="#370BD5"/>
    <path d="M7305.426,4287.441 Q7305.426,4399.072 7234.45,4437.929 L7314.635,4530.244 L7204.127,4530.244 L7146.178,4457.246 L7145.954,4457.021 L7145.954,4456.796 L7145.729,4456.572 Q7068.463,4456.572 7027.248,4413.222 Q6986.032,4369.873 6986.032,4286.992 Q6986.032,4205.009 7027.023,4161.772 Q7068.014,4118.535 7146.178,4118.535 Q7224.567,4118.535 7264.997,4161.435 Q7305.426,4204.335 7305.426,4287.441 z M7079.469,4287.441 Q7079.469,4382.675 7145.729,4382.675 Q7179.42,4382.675 7195.705,4359.541 Q7211.989,4336.406 7211.989,4287.441 Q7211.989,4238.251 7195.48,4214.78 Q7178.971,4191.308 7146.178,4191.308 Q7079.469,4191.308 7079.469,4287.441 z" fill="#370BD5"/>
  </g>
</svg>
